<svg width="352" height="233" viewBox="0 0 352 233" fill="none" xmlns="http://www.w3.org/2000/svg">
<g clip-path="url(#clip0_41_109)">
<path d="M186.442 77.3416C186.442 81.064 185.072 84.2823 182.337 87.0072C178.996 90.2938 174.632 91.9371 169.246 91.9371C164.904 91.9371 161.104 90.7715 157.852 88.4352C153.989 85.6264 152.013 81.925 151.923 77.3416V40.6848L151.465 39.0625H155.049L154.527 40.6848L154.59 77.5988C154.59 80.4129 155.417 82.9173 157.067 85.1223C159.718 88.6242 163.56 90.3778 168.593 90.3778C172.977 90.3358 176.366 88.5612 178.753 85.0593C180.403 82.5498 181.23 79.9772 181.23 77.3363V40.6848L180.772 39.0625H186.959L186.437 40.6848V77.3416H186.442Z" fill="white"/>
<path d="M165.557 40.5955C165.557 36.8731 166.927 33.6548 169.662 30.9299C173.004 27.6433 177.367 26 182.748 26C187.09 26 190.89 27.1655 194.142 29.5019C198.005 32.3107 199.981 36.0121 200.071 40.5955V77.2523L200.529 78.8746H196.946L197.467 77.2523L197.404 40.3382C197.404 37.5241 196.577 35.0198 194.927 32.8147C192.276 29.3129 188.434 27.5593 183.401 27.5593C179.017 27.6013 175.628 29.3759 173.241 32.8777C171.591 35.3873 170.764 37.9599 170.764 40.6008V77.2575L171.222 78.8798H165.035L165.557 77.2575V40.5955Z" fill="white"/>
<path d="M42.469 177.583C42.5059 177.473 42.5217 177.358 42.5217 177.242V128.757L42 127.134H48.1871L47.7286 128.757V176.302C47.7286 176.916 48.2292 177.421 48.8511 177.421H58.2793C62.664 177.379 66.3531 175.756 69.3518 172.554V179.043H42L42.469 177.589V177.583Z" fill="white"/>
<path d="M76.387 127.785L75.8652 126.163H82.0523L81.5938 127.785V164.442C81.5938 167.083 82.416 169.655 84.0708 172.165C86.4581 175.667 89.8468 177.441 94.2315 177.483C99.2697 177.483 103.112 175.73 105.757 172.228C107.407 170.023 108.234 167.513 108.234 164.705L108.297 127.791L107.776 126.168H111.359L110.901 127.791V164.447C110.811 169.031 108.84 172.732 104.972 175.541C101.715 177.877 97.9153 179.043 93.578 179.043C88.192 179.043 83.8283 177.399 80.4871 174.113C77.7519 171.388 76.3817 168.164 76.3817 164.447V127.791L76.387 127.785Z" fill="white"/>
<path d="M120.609 179.043L121.262 177.421L125.478 128.935C125.489 128.82 125.478 128.704 125.457 128.594L125.167 127.14H129.979C130.49 127.14 130.949 127.46 131.123 127.938L145.078 165.986C145.795 167.933 148.561 167.933 149.273 165.986L163.17 127.943C163.344 127.465 163.802 127.145 164.314 127.145H169.125L168.835 128.599C168.814 128.709 168.804 128.825 168.814 128.94L173.03 177.426L173.684 179.048H167.497L167.824 177.426L164.461 139.099C164.345 137.803 162.548 137.572 162.1 138.79L147.971 177.578C147.65 178.455 146.812 179.043 145.874 179.043C144.936 179.043 144.098 178.46 143.776 177.578L129.584 138.769C129.136 137.551 127.339 137.787 127.223 139.078L123.86 177.421L124.187 179.043H120.604H120.609Z" fill="white"/>
<path d="M182.807 179.043L183.328 177.421V128.935C183.328 128.82 183.313 128.704 183.276 128.594L182.807 127.14H210.158V133.629C207.165 130.384 203.471 128.762 199.086 128.762H188.535V152.246H194.659C199.176 152.246 202.865 151.448 205.732 149.847V156.336C202.738 154.692 199.044 153.868 194.659 153.868H188.535V177.421H199.086C203.471 177.379 207.16 175.756 210.158 172.554V179.043H182.807Z" fill="white"/>
<path d="M260.893 127.14L260.435 128.762V175.735C260.435 176.854 260.588 177.967 260.893 179.043H260.83H256.287C255.75 179.043 255.249 178.77 254.954 178.324L226.58 134.758C226 133.87 224.619 134.28 224.619 135.335V177.421L225.078 179.043H221.494L222.016 177.421V130.463C222.016 129.334 221.842 128.211 221.494 127.14H221.557H226.385C226.748 127.14 227.08 127.323 227.281 127.623L254.917 169.965C255.776 171.283 257.837 170.679 257.837 169.104V128.762L257.315 127.14H260.899H260.893Z" fill="white"/>
<path d="M273.593 177.421L274.115 179.043H270.01L270.985 177.421L286.774 129.072C286.837 128.872 286.842 128.657 286.774 128.452L286.352 127.14H291.87C292.308 127.14 292.698 127.418 292.829 127.833L309.014 177.421L309.989 179.043H303.28L303.802 177.421L298.827 162.19C298.568 161.407 297.836 160.872 297.008 160.872H278.99L273.583 177.415L273.593 177.421ZM287.744 134.101L279.849 158.278H294.927C296.228 158.278 297.151 157.013 296.745 155.785L289.662 134.101C289.362 133.177 288.044 133.177 287.744 134.101Z" fill="white"/>
<path d="M150.669 195.093C147.249 195.093 144.604 197.66 144.604 201.078C144.604 204.496 147.149 206.963 150.569 206.963C153.99 206.963 156.635 204.396 156.635 200.978C156.635 197.56 154.09 195.093 150.669 195.093ZM150.78 205.493C148.119 205.493 146.517 203.367 146.517 200.831C146.517 198.295 148.087 196.563 150.448 196.563C153.109 196.563 154.712 198.689 154.712 201.225C154.712 203.761 153.141 205.493 150.775 205.493" fill="white"/>
<path d="M170.996 195.287C170.648 196.353 168.714 199.639 167.291 201.913C165.821 199.639 163.839 196.353 163.475 195.287H161.178C161.425 196.431 161.441 199.114 161.441 201.031C161.441 202.947 161.425 205.624 161.178 206.769H163.407C163.175 205.672 163.143 200.815 163.143 198.327C164.582 200.506 165.968 202.795 166.927 204.49H167.539C168.461 202.774 169.884 200.479 171.323 198.29C171.323 200.758 171.291 205.651 171.059 206.764H173.288C173.041 205.619 173.025 202.936 173.025 201.02C173.025 199.104 173.041 196.426 173.288 195.282H170.996V195.287Z" fill="white"/>
<path d="M211.648 206.769H214.046C214.215 205.609 216.312 201.288 217.519 198.836C218.742 201.293 220.892 205.609 221.056 206.769H223.617C222.826 205.625 220.012 200.08 217.635 195.087C215.253 200.075 212.576 205.625 211.654 206.769" fill="white"/>
<path d="M234.005 195.287H224.287V197.182C225.441 196.935 226.801 196.92 228.287 196.92C228.287 200.191 228.271 205.619 228.024 206.769H230.274C230.026 205.624 230.01 200.196 230.01 196.92C231.497 196.92 232.851 196.935 234.01 197.182V195.287H234.005Z" fill="white"/>
<path d="M186.727 195.287C186.959 196.368 186.99 200.752 186.99 203.776C184.561 200.915 182.179 198.117 180.382 195.287H178.416C178.664 196.431 178.68 199.114 178.68 201.031C178.68 202.947 178.664 205.624 178.416 206.769H180.651C180.419 205.687 180.387 201.304 180.387 198.279C182.817 201.125 185.193 203.876 186.996 206.769H188.961C188.714 205.509 188.682 202.957 188.682 201.031C188.682 199.104 188.714 196.431 188.961 195.287H186.732H186.727Z" fill="white"/>
<path d="M194.084 195.287C194.332 196.431 194.347 199.13 194.347 201.046C194.347 202.963 194.332 205.624 194.084 206.769H196.313C196.066 205.624 196.05 202.957 196.05 201.046C196.05 199.135 196.066 196.437 196.313 195.287H194.084Z" fill="white"/>
<path d="M211.221 195.287H208.824C208.56 196.447 206.842 199.214 205.767 200.899C204.66 199.214 202.889 196.447 202.61 195.287H200.049C201.008 196.431 202.858 199.324 204.713 202.516V204.07C204.713 205.052 204.697 206.018 204.534 206.769H206.747C206.584 206.018 206.568 205.052 206.568 204.07V202.516C208.418 199.324 210.252 196.431 211.227 195.287" fill="white"/>
<path d="M123.559 200.668C123.981 200.469 124.324 200.227 124.598 199.939C125.088 199.413 125.335 198.757 125.335 197.985C125.335 197.124 125.019 196.468 124.397 196.027C123.802 195.607 122.911 195.402 121.678 195.402C121.388 195.402 121.088 195.418 120.798 195.444C120.281 195.492 119.791 195.492 119.106 195.46C118.779 195.444 118.526 195.429 118.337 195.408L117.994 195.366L118.047 196.804C118.063 197.214 118.078 197.613 118.089 197.991C118.1 198.374 118.11 198.71 118.121 199.009C118.131 199.298 118.136 199.492 118.136 199.587V202.726C118.136 203.272 118.121 203.887 118.094 204.564C118.068 205.246 118.042 205.934 118.01 206.632L117.994 206.979L118.342 206.937C118.611 206.906 118.869 206.884 119.117 206.879C119.644 206.853 120.118 206.853 120.592 206.9C121.478 206.99 122.331 206.932 123.069 206.716C123.591 206.564 124.049 206.338 124.439 206.05C124.835 205.756 125.146 205.393 125.372 204.979C125.604 204.553 125.72 204.076 125.72 203.551C125.72 202.585 125.451 201.839 124.924 201.346C124.598 201.036 124.144 200.81 123.559 200.668ZM120.034 199.224C120.034 198.836 120.044 198.39 120.071 197.875C120.097 197.445 120.113 197.03 120.123 196.626C120.223 196.615 120.324 196.605 120.429 196.599C120.619 196.589 120.808 196.584 120.993 196.584C121.873 196.584 122.49 196.731 122.837 197.025C123.175 197.313 123.338 197.723 123.338 198.285C123.338 198.663 123.264 198.983 123.117 199.23C122.964 199.487 122.774 199.687 122.532 199.834C122.284 199.991 121.994 200.101 121.673 200.17C121.335 200.238 120.998 200.275 120.661 200.275H120.034V199.219V199.224ZM123.486 204.37C123.375 204.653 123.212 204.905 123.017 205.115C122.816 205.32 122.579 205.483 122.3 205.593C121.825 205.782 121.262 205.777 120.587 205.74C120.418 205.729 120.26 205.719 120.118 205.708C120.102 205.178 120.081 204.695 120.065 204.265C120.044 203.766 120.034 203.33 120.034 202.952V201.456H120.181C120.692 201.456 121.135 201.472 121.499 201.508C121.857 201.545 122.158 201.598 122.405 201.671C122.637 201.739 122.832 201.829 122.985 201.928C123.127 202.023 123.248 202.144 123.343 202.285C123.549 202.569 123.654 202.947 123.654 203.398C123.654 203.761 123.596 204.091 123.486 204.375" fill="white"/>
<path d="M136.277 195.46L135.755 195.366L135.655 195.576C135.465 195.985 135.254 196.426 135.012 196.899C134.775 197.371 134.527 197.844 134.258 198.321C133.995 198.799 133.726 199.277 133.452 199.744C133.273 200.054 133.099 200.343 132.925 200.616C132.487 199.86 132.061 199.104 131.634 198.348C131.138 197.46 130.638 196.526 130.148 195.565L130.053 195.376L129.842 195.408C129.694 195.429 129.552 195.444 129.415 195.46C129.151 195.486 128.867 195.486 128.609 195.46C128.466 195.444 128.324 195.429 128.182 195.408L127.502 195.308L127.892 195.87C127.966 195.975 128.155 196.274 128.456 196.773C128.762 197.282 129.204 198.006 129.779 198.962C130.364 199.912 130.801 200.642 131.112 201.183C131.397 201.676 131.597 202.023 131.713 202.217C131.713 202.837 131.713 203.372 131.702 203.813C131.702 204.275 131.692 204.674 131.681 205.01C131.671 205.346 131.655 205.64 131.644 205.887C131.628 206.139 131.613 206.381 131.586 206.606L131.555 206.979L132.329 206.869C132.545 206.843 132.783 206.843 133.009 206.869C133.136 206.885 133.267 206.9 133.399 206.921L133.779 206.979L133.742 206.596C133.721 206.391 133.705 206.118 133.684 205.777C133.668 205.435 133.657 205.057 133.647 204.643C133.636 204.228 133.626 203.787 133.621 203.325C133.615 202.884 133.61 202.448 133.61 202.018C133.763 201.718 133.942 201.393 134.142 201.031C134.364 200.642 134.627 200.196 134.933 199.697C135.238 199.198 135.597 198.631 136.008 197.996C136.419 197.361 136.888 196.641 137.415 195.843L137.81 195.25L137.109 195.392C136.503 195.513 136.472 195.476 136.271 195.444" fill="white"/>
</g>
<defs>
<clipPath id="clip0_41_109">
<rect width="268" height="181" fill="white" transform="translate(42 26)"/>
</clipPath>
</defs>
</svg>
